<svg width="598" height="274" viewBox="0 0 598 274" fill="none" xmlns="http://www.w3.org/2000/svg">
<path fill-rule="evenodd" clip-rule="evenodd" d="M2 143.296L20.0403 153.105C39.5839 162.913 77.1678 182.531 114.752 189.07C150.832 192.339 188.416 182.531 226 143.296C263.584 107.331 301.168 38.6699 338.752 32.1308C374.832 28.8612 412.416 87.7133 431.96 117.139L450 143.296V261H431.96C412.416 261 374.832 261 338.752 261C301.168 261 263.584 261 226 261C188.416 261 150.832 261 114.752 261C77.1678 261 39.5839 261 20.0403 261H2V143.296Z" fill="white" stroke="#0989FF" stroke-width="3"/>
<path fill-rule="evenodd" clip-rule="evenodd" d="M0 133.166L24.0805 144.902C50.1678 156.638 100.336 180.111 150.503 187.935C198.664 191.847 248.832 180.111 299 133.166C349.168 90.1336 399.336 7.98058 449.503 0.15648C497.664 -3.75557 547.832 66.6613 573.919 101.87L598 133.166V274H573.919C547.832 274 497.664 274 449.503 274C399.336 274 349.168 274 299 274C248.832 274 198.664 274 150.503 274C100.336 274 50.1678 274 24.0805 274H0V133.166Z" fill="url(#paint0_linear_2364_199)"/>
<defs>
<linearGradient id="paint0_linear_2364_199" x1="299" y1="99.9571" x2="299" y2="283.408" gradientUnits="userSpaceOnUse">
<stop stop-color="#00D1FF"/>
<stop offset="0.463349" stop-color="#0B5DBD"/>
<stop offset="1" stop-color="#150099"/>
</linearGradient>
</defs>
</svg>
