<svg width="580" height="54" viewBox="0 0 580 54" fill="none" xmlns="http://www.w3.org/2000/svg">
<path fill-rule="evenodd" clip-rule="evenodd" d="M0 11.0097L16.9591 14.1553C32.2222 17.8252 64.4444 25.165 96.6667 23.5922C128.889 21.4951 161.111 11.0097 193.333 11.534C225.556 12.5825 257.778 25.165 290 34.0777C322.222 42.9903 354.444 48.7573 386.667 50.3301C418.889 52.4272 451.111 50.3301 483.333 41.4175C515.556 32.5049 547.778 16.2524 564.737 7.86408L580 0V54H564.737C547.778 54 515.556 54 483.333 54C451.111 54 418.889 54 386.667 54C354.444 54 322.222 54 290 54C257.778 54 225.556 54 193.333 54C161.111 54 128.889 54 96.6667 54C64.4444 54 32.2222 54 16.9591 54H0V11.0097Z" fill="white"/>
</svg>
