<svg width="580" height="340" viewBox="0 0 580 340" fill="none" xmlns="http://www.w3.org/2000/svg">
<rect opacity="0.7" width="580" height="340" fill="url(#paint0_linear_2386_227)" fill-opacity="0.5"/>
<path fill-rule="evenodd" clip-rule="evenodd" d="M580 22.1248L568 27.2306C556 31.9108 532 42.1223 507 42.1223C483 42.1223 459 31.9108 435 25.9541C411 19.572 387 17.4446 362 19.572C338 22.1248 314 29.7834 290 35.7401C266 42.1223 242 46.8025 217 53.1847C193 59.1414 169 66.8 145 62.9707C121 59.1414 97 44.2497 72 37.0165C48 29.7834 24 29.7834 12 29.7834H0V-8.68873e-07H12C24 -8.68873e-07 48 -8.68873e-07 72 -8.68873e-07C97 -8.68873e-07 121 -8.68873e-07 145 -8.68873e-07C169 -8.68873e-07 193 -8.68873e-07 217 -8.68873e-07C242 -8.68873e-07 266 -8.68873e-07 290 -8.68873e-07C314 -8.68873e-07 338 -8.68873e-07 362 -8.68873e-07C387 -8.68873e-07 411 -8.68873e-07 435 -8.68873e-07C459 -8.68873e-07 483 -8.68873e-07 507 -8.68873e-07C532 -8.68873e-07 556 -8.68873e-07 568 -8.68873e-07H580V22.1248Z" fill="white"/>
<defs>
<linearGradient id="paint0_linear_2386_227" x1="290" y1="0" x2="290" y2="340" gradientUnits="userSpaceOnUse">
<stop offset="0.225" stop-color="#3056E0"/>
<stop offset="0.46" stop-color="#000AFF"/>
<stop offset="0.695977" stop-color="#00D1FF"/>
</linearGradient>
</defs>
</svg>
