<svg width="5" height="5" viewBox="0 0 5 5" fill="none" xmlns="http://www.w3.org/2000/svg">
<path fill-rule="evenodd" clip-rule="evenodd" d="M0.910313 0.4103C1.15293 0.183698 1.53331 0.19668 1.75991 0.439297C1.98651 0.681914 1.97353 1.06229 1.73091 1.28889L1.61725 1.39506C1.50357 1.50123 1.36587 1.56562 1.22306 1.58887L1.96653 2.38488L2.70998 3.18087C2.74291 3.03999 2.81654 2.907 2.93021 2.80083L3.04388 2.69467C3.28649 2.46807 3.66687 2.48105 3.89347 2.72367C4.12008 2.96628 4.10709 3.34666 3.86448 3.57326L3.25214 4.14518L3.19785 4.19589L3.19055 4.18807C3.0957 4.23554 2.97814 4.22189 2.89627 4.14684L1.53228 2.89646C1.49416 2.86151 1.4588 2.82365 1.42653 2.78323L0.27206 1.33718C0.20276 1.25037 0.197157 1.13214 0.250998 1.04075L0.243687 1.03293L0.910313 0.4103Z" fill="#FFFBFB"/>
</svg>
