<svg width="10" height="10" viewBox="0 0 10 10" fill="none" xmlns="http://www.w3.org/2000/svg">
<rect x="0.5" y="0.5" width="9" height="9" rx="1.5" stroke="white"/>
<circle cx="5" cy="5" r="1.75" stroke="white" stroke-width="0.5"/>
<mask id="path-3-inside-1_2362_188" fill="white">
<path d="M8 3C8 3.27614 7.77614 3.5 7.5 3.5C7.22386 3.5 7 3.27614 7 3C7 2.72386 7.22386 2.5 7.5 2.5C7.77614 2.5 8 2.72386 8 3Z"/>
</mask>
<path d="M8 3C8 3.27614 7.77614 3.5 7.5 3.5C7.22386 3.5 7 3.27614 7 3C7 2.72386 7.22386 2.5 7.5 2.5C7.77614 2.5 8 2.72386 8 3Z" fill="white"/>
<path d="M7 3C7 2.72386 7.22386 2.5 7.5 2.5V4.5C8.32843 4.5 9 3.82843 9 3H7ZM7.5 2.5C7.77614 2.5 8 2.72386 8 3H6C6 3.82843 6.67157 4.5 7.5 4.5V2.5ZM8 3C8 3.27614 7.77614 3.5 7.5 3.5V1.5C6.67157 1.5 6 2.17157 6 3H8ZM7.5 3.5C7.22386 3.5 7 3.27614 7 3H9C9 2.17157 8.32843 1.5 7.5 1.5V3.5Z" fill="white" mask="url(#path-3-inside-1_2362_188)"/>
</svg>
