<svg width="1000" height="122" viewBox="0 0 1000 122" fill="none" xmlns="http://www.w3.org/2000/svg">
<path fill-rule="evenodd" clip-rule="evenodd" d="M0 38.5003L29.2398 64.0003C55.5556 76.777 102.339 57.6168 157.895 52.1411C213.45 44.8401 263.52 111.968 322 77.6945C380 60.287 422.5 38.5003 500 64.0003C560 83.7422 611.111 72.2187 666.667 77.6945C722.222 84.9954 791 87 862.5 64.0003C926.5 43.4131 924 21 973.684 0H1000V121.5H973.684C944.444 121.5 888.889 121.5 833.333 121.5C777.778 121.5 722.222 121.5 666.667 121.5C611.111 121.5 555.556 121.5 500 121.5C444.444 121.5 388.889 121.5 333.333 121.5C277.778 121.5 222.222 121.5 166.667 121.5C111.111 121.5 55.5556 121.5 29.2398 121.5H0V38.5003Z" fill="white"/>
</svg>
