<svg width="1000" height="121" viewBox="0 0 1000 121" fill="none" xmlns="http://www.w3.org/2000/svg">
<path fill-rule="evenodd" clip-rule="evenodd" d="M1000 0.128906L970.76 5.02211C944.444 10.7308 897.661 38.459 842.105 36.0124C786.55 32.7503 754.98 51.3236 696.5 36.0097C638.5 28.2319 561.056 33.1359 505.5 47C449.944 60.8641 388.889 52.1116 333.333 54.5583C277.778 57.8204 222.222 49.8765 166.667 36.0124C111.111 22.1483 50.2398 49.0609 21 36.0124L0 36.0097V67.0027H26.3159C55.5556 67.0027 111.111 67.0027 166.667 67.0027C222.222 67.0027 277.778 67.0027 333.333 67.0027C388.889 67.0027 444.444 67.0027 500 67.0027C555.556 67.0027 611.111 67.0027 666.667 67.0027C722.222 67.0027 777.778 67.0027 833.333 67.0027C888.889 67.0027 944.444 67.0027 970.76 67.0027H1000V0.128906Z" fill="#1F5EFF"/>
<rect y="61" width="1000" height="60" fill="#1F5EFF"/>
</svg>
