<svg width="109" height="91" viewBox="0 0 109 91" fill="none" xmlns="http://www.w3.org/2000/svg">
<path d="M18.3957 90V85.05H21.8557V90H18.3957ZM18.5657 89.82H20.0657V86.4H20.1857V89.82H21.6857V85.23H18.5657V89.82ZM18.6557 89.73V85.32H21.6057V89.73H20.2757V86.31H19.9857V89.73H18.6557ZM21.9882 90V88.78C22.1016 88.78 22.2082 88.7467 22.3082 88.68C22.4082 88.6067 22.4649 88.4867 22.4782 88.32L22.7582 85.05H26.3482V90H24.4182V88.5H24.4082C24.3949 88.9 24.3482 89.21 24.2682 89.43C24.1949 89.6433 24.0716 89.7933 23.8982 89.88C23.7249 89.96 23.4816 90 23.1682 90H21.9882ZM22.1582 89.82H23.1682C23.4482 89.82 23.6582 89.7867 23.7982 89.72C23.9382 89.6467 24.0382 89.53 24.0982 89.37C24.1582 89.21 24.2016 88.9933 24.2282 88.72L24.4782 86.38H24.5982V89.82H26.1682V85.23H22.9282L22.6582 88.33C22.6449 88.5233 22.5849 88.6733 22.4782 88.78C22.3782 88.8867 22.2716 88.94 22.1582 88.94V89.82ZM22.2482 89.73V89.03C22.3616 89.03 22.4649 88.9767 22.5582 88.87C22.6582 88.7567 22.7182 88.58 22.7382 88.34L23.0082 85.32H26.0782V89.73H24.6882V86.29H24.3982L24.1382 88.7C24.1116 88.98 24.0649 89.1967 23.9982 89.35C23.9382 89.4967 23.8416 89.5967 23.7082 89.65C23.5816 89.7033 23.4016 89.73 23.1682 89.73H22.2482ZM27.5804 90.06C27.4204 90.06 27.2538 90.0367 27.0804 89.99C26.9138 89.9433 26.7738 89.84 26.6604 89.68C26.5471 89.52 26.4904 89.27 26.4904 88.93V88.21C26.4904 87.7033 26.7104 87.3433 27.1504 87.13H26.5804V86.28C26.5804 85.8333 26.6938 85.5 26.9204 85.28C27.1471 85.0533 27.5704 84.94 28.1904 84.94C28.6171 84.94 28.9571 84.9767 29.2104 85.05C29.4638 85.1167 29.6471 85.2467 29.7604 85.44C29.8738 85.6333 29.9304 85.9133 29.9304 86.28V90H28.0904V89.96C27.9504 90.0267 27.7804 90.06 27.5804 90.06ZM27.5804 89.88C27.7538 89.88 27.8938 89.8567 28.0004 89.81C28.1071 89.7633 28.1938 89.7 28.2604 89.62V89.82H29.7604V86.28C29.7604 85.9533 29.7104 85.71 29.6104 85.55C29.5104 85.3833 29.3438 85.27 29.1104 85.21C28.8838 85.15 28.5771 85.12 28.1904 85.12C27.6438 85.12 27.2671 85.2167 27.0604 85.41C26.8538 85.5967 26.7504 85.8867 26.7504 86.28V86.95H27.9904C27.9504 86.9767 27.8938 87.0033 27.8204 87.03C27.7538 87.05 27.6771 87.0767 27.5904 87.11C27.4638 87.1567 27.3271 87.22 27.1804 87.3C27.0338 87.3733 26.9104 87.48 26.8104 87.62C26.7104 87.76 26.6604 87.9567 26.6604 88.21V88.93C26.6604 89.21 26.7071 89.42 26.8004 89.56C26.9004 89.6933 27.0204 89.78 27.1604 89.82C27.3004 89.86 27.4404 89.88 27.5804 89.88ZM27.5804 89.79C27.4538 89.79 27.3271 89.7733 27.2004 89.74C27.0738 89.7 26.9671 89.62 26.8804 89.5C26.7938 89.3733 26.7504 89.1833 26.7504 88.93V88.21C26.7504 87.9567 26.8038 87.76 26.9104 87.62C27.0238 87.48 27.1704 87.37 27.3504 87.29C27.5304 87.21 27.7171 87.1367 27.9104 87.07C28.0838 87.01 28.1938 86.9367 28.2404 86.85C28.2938 86.7633 28.3204 86.6333 28.3204 86.46V86.18C28.3204 86.1067 28.3104 86.05 28.2904 86.01C28.2771 85.9633 28.2404 85.94 28.1804 85.94C28.1204 85.94 28.0804 85.97 28.0604 86.03C28.0404 86.09 28.0304 86.1767 28.0304 86.29V86.86H26.8304V86.28C26.8304 85.9267 26.9271 85.66 27.1204 85.48C27.3138 85.3 27.6704 85.21 28.1904 85.21C28.5571 85.21 28.8471 85.24 29.0604 85.3C29.2804 85.3533 29.4371 85.4567 29.5304 85.61C29.6304 85.7633 29.6804 85.9867 29.6804 86.28V89.73H28.3504V89.29C28.3171 89.4033 28.2404 89.5167 28.1204 89.63C28.0071 89.7367 27.8271 89.79 27.5804 89.79ZM28.1204 86.87V86.29C28.1204 86.1167 28.1404 86.03 28.1804 86.03C28.2204 86.03 28.2404 86.08 28.2404 86.18V86.46C28.2404 86.6533 28.2004 86.79 28.1204 86.87ZM28.1804 89.02C28.2604 89.02 28.3038 88.98 28.3104 88.9C28.3171 88.86 28.3204 88.8167 28.3204 88.77C28.3204 88.7167 28.3204 88.6567 28.3204 88.59V87.53C28.2338 87.5833 28.1638 87.6533 28.1104 87.74C28.0571 87.82 28.0304 87.93 28.0304 88.07V88.65C28.0304 88.75 28.0371 88.8367 28.0504 88.91C28.0638 88.9833 28.1071 89.02 28.1804 89.02ZM28.1804 88.93C28.1471 88.93 28.1304 88.9 28.1304 88.84L28.1204 88.65V88.07C28.1204 87.9167 28.1604 87.7967 28.2404 87.71V88.83C28.2404 88.8967 28.2204 88.93 28.1804 88.93ZM30.0949 90V85.05H32.3449C32.8182 85.05 33.1582 85.16 33.3649 85.38C33.5782 85.5933 33.6849 85.8733 33.6849 86.22V86.5C33.6849 86.6867 33.6549 86.86 33.5949 87.02C33.5415 87.18 33.4515 87.32 33.3249 87.44C33.4982 87.5267 33.6215 87.6633 33.6949 87.85C33.7749 88.03 33.8149 88.2467 33.8149 88.5V88.62C33.8149 89.1267 33.6782 89.4833 33.4049 89.69C33.1382 89.8967 32.7582 90 32.2649 90H30.0949ZM30.2649 89.82H32.2649C32.6982 89.82 33.0349 89.7367 33.2749 89.57C33.5149 89.3967 33.6349 89.08 33.6349 88.62V88.5C33.6349 87.9133 33.4249 87.5667 33.0049 87.46C33.1915 87.3733 33.3215 87.2433 33.3949 87.07C33.4682 86.8967 33.5049 86.7067 33.5049 86.5V86.22C33.5049 85.9267 33.4149 85.69 33.2349 85.51C33.0549 85.3233 32.7582 85.23 32.3449 85.23H30.2649V89.82ZM30.3449 89.73V85.32H32.3449C32.7249 85.32 32.9982 85.4033 33.1649 85.57C33.3382 85.7367 33.4249 85.9533 33.4249 86.22V86.5C33.4249 86.7533 33.3649 86.97 33.2449 87.15C33.1315 87.33 32.9382 87.4367 32.6649 87.47V87.48C32.9115 87.48 33.1215 87.5633 33.2949 87.73C33.4682 87.8967 33.5549 88.1533 33.5549 88.5V88.62C33.5549 89.04 33.4382 89.33 33.2049 89.49C32.9782 89.65 32.6649 89.73 32.2649 89.73H30.3449ZM31.7749 87.08H31.9049C32.0115 87.08 32.0649 86.9233 32.0649 86.61C32.0649 86.5033 32.0615 86.4167 32.0549 86.35C32.0549 86.2767 32.0515 86.22 32.0449 86.18C32.0315 86.1067 31.9849 86.07 31.9049 86.07H31.7749V87.08ZM31.8649 86.99V86.16H31.9049C31.9382 86.16 31.9582 86.19 31.9649 86.25C31.9715 86.2833 31.9749 86.33 31.9749 86.39C31.9749 86.45 31.9749 86.5233 31.9749 86.61C31.9749 86.8633 31.9515 86.99 31.9049 86.99H31.8649ZM31.7749 89.05H31.9049C31.9649 89.05 32.0082 89.0067 32.0349 88.92C32.0549 88.84 32.0649 88.6967 32.0649 88.49C32.0649 88.41 32.0615 88.34 32.0549 88.28C32.0549 88.22 32.0515 88.1667 32.0449 88.12C32.0382 88.0333 31.9915 87.99 31.9049 87.99H31.7749V89.05ZM31.8649 88.97V88.08H31.9049C31.9382 88.08 31.9582 88.1133 31.9649 88.18C31.9715 88.2133 31.9749 88.2567 31.9749 88.31C31.9749 88.3633 31.9749 88.4233 31.9749 88.49C31.9749 88.5767 31.9749 88.6533 31.9749 88.72C31.9749 88.78 31.9715 88.8267 31.9649 88.86C31.9515 88.9333 31.9315 88.97 31.9049 88.97H31.8649ZM35.0414 90.06C34.8814 90.06 34.7147 90.0367 34.5414 89.99C34.3747 89.9433 34.2347 89.84 34.1214 89.68C34.008 89.52 33.9514 89.27 33.9514 88.93V88.21C33.9514 87.7033 34.1714 87.3433 34.6114 87.13H34.0414V86.28C34.0414 85.8333 34.1547 85.5 34.3814 85.28C34.608 85.0533 35.0314 84.94 35.6514 84.94C36.078 84.94 36.418 84.9767 36.6714 85.05C36.9247 85.1167 37.108 85.2467 37.2214 85.44C37.3347 85.6333 37.3914 85.9133 37.3914 86.28V90H35.5514V89.96C35.4114 90.0267 35.2414 90.06 35.0414 90.06ZM35.0414 89.88C35.2147 89.88 35.3547 89.8567 35.4614 89.81C35.568 89.7633 35.6547 89.7 35.7214 89.62V89.82H37.2214V86.28C37.2214 85.9533 37.1714 85.71 37.0714 85.55C36.9714 85.3833 36.8047 85.27 36.5714 85.21C36.3447 85.15 36.038 85.12 35.6514 85.12C35.1047 85.12 34.728 85.2167 34.5214 85.41C34.3147 85.5967 34.2114 85.8867 34.2114 86.28V86.95H35.4514C35.4114 86.9767 35.3547 87.0033 35.2814 87.03C35.2147 87.05 35.138 87.0767 35.0514 87.11C34.9247 87.1567 34.788 87.22 34.6414 87.3C34.4947 87.3733 34.3714 87.48 34.2714 87.62C34.1714 87.76 34.1214 87.9567 34.1214 88.21V88.93C34.1214 89.21 34.168 89.42 34.2614 89.56C34.3614 89.6933 34.4814 89.78 34.6214 89.82C34.7614 89.86 34.9014 89.88 35.0414 89.88ZM35.0414 89.79C34.9147 89.79 34.788 89.7733 34.6614 89.74C34.5347 89.7 34.428 89.62 34.3414 89.5C34.2547 89.3733 34.2114 89.1833 34.2114 88.93V88.21C34.2114 87.9567 34.2647 87.76 34.3714 87.62C34.4847 87.48 34.6314 87.37 34.8114 87.29C34.9914 87.21 35.178 87.1367 35.3714 87.07C35.5447 87.01 35.6547 86.9367 35.7014 86.85C35.7547 86.7633 35.7814 86.6333 35.7814 86.46V86.18C35.7814 86.1067 35.7714 86.05 35.7514 86.01C35.738 85.9633 35.7014 85.94 35.6414 85.94C35.5814 85.94 35.5414 85.97 35.5214 86.03C35.5014 86.09 35.4914 86.1767 35.4914 86.29V86.86H34.2914V86.28C34.2914 85.9267 34.388 85.66 34.5814 85.48C34.7747 85.3 35.1314 85.21 35.6514 85.21C36.018 85.21 36.308 85.24 36.5214 85.3C36.7414 85.3533 36.898 85.4567 36.9914 85.61C37.0914 85.7633 37.1414 85.9867 37.1414 86.28V89.73H35.8114V89.29C35.778 89.4033 35.7014 89.5167 35.5814 89.63C35.468 89.7367 35.288 89.79 35.0414 89.79ZM35.5814 86.87V86.29C35.5814 86.1167 35.6014 86.03 35.6414 86.03C35.6814 86.03 35.7014 86.08 35.7014 86.18V86.46C35.7014 86.6533 35.6614 86.79 35.5814 86.87ZM35.6414 89.02C35.7214 89.02 35.7647 88.98 35.7714 88.9C35.778 88.86 35.7814 88.8167 35.7814 88.77C35.7814 88.7167 35.7814 88.6567 35.7814 88.59V87.53C35.6947 87.5833 35.6247 87.6533 35.5714 87.74C35.518 87.82 35.4914 87.93 35.4914 88.07V88.65C35.4914 88.75 35.498 88.8367 35.5114 88.91C35.5247 88.9833 35.568 89.02 35.6414 89.02ZM35.6414 88.93C35.608 88.93 35.5914 88.9 35.5914 88.84L35.5814 88.65V88.07C35.5814 87.9167 35.6214 87.7967 35.7014 87.71V88.83C35.7014 88.8967 35.6814 88.93 35.6414 88.93ZM38.2158 90V86.56H37.4858V85.05H40.7658V86.56H40.0358V90H38.2158ZM38.3858 89.82H39.8658V86.38H40.5958V85.23H37.6558V86.38H38.3858V89.82ZM38.4658 89.73V86.29H37.7358V85.32H40.5158V86.29H39.7858V89.73H38.4658ZM42.5861 90.11C42.1861 90.11 41.8595 90.0633 41.6061 89.97C41.3528 89.87 41.1628 89.6867 41.0361 89.42C40.9161 89.1533 40.8561 88.76 40.8561 88.24V86.39C40.8561 85.85 41.0061 85.4767 41.3061 85.27C41.6061 85.0633 42.0328 84.96 42.5861 84.96C43.1395 84.96 43.5661 85.0633 43.8661 85.27C44.1661 85.4767 44.3161 85.85 44.3161 86.39V88.24C44.3161 88.76 44.2528 89.1533 44.1261 89.42C43.9995 89.6867 43.8095 89.87 43.5561 89.97C43.3028 90.0633 42.9795 90.11 42.5861 90.11ZM42.5861 89.93C42.9461 89.93 43.2395 89.8867 43.4661 89.8C43.6995 89.7133 43.8695 89.55 43.9761 89.31C44.0895 89.0633 44.1461 88.7067 44.1461 88.24V87.96H42.6461V88.85C42.6461 88.9233 42.6395 88.9733 42.6261 89C42.6195 89.02 42.6061 89.03 42.5861 89.03C42.5461 89.03 42.5261 88.97 42.5261 88.85V87.73H44.1461V86.39C44.1461 85.91 44.0095 85.5833 43.7361 85.41C43.4695 85.23 43.0861 85.14 42.5861 85.14C42.0861 85.14 41.6995 85.23 41.4261 85.41C41.1595 85.5833 41.0261 85.91 41.0261 86.39V88.24C41.0261 88.7067 41.0795 89.0633 41.1861 89.31C41.2995 89.55 41.4728 89.7133 41.7061 89.8C41.9395 89.8867 42.2328 89.93 42.5861 89.93ZM42.5861 89.84C42.2461 89.84 41.9661 89.8 41.7461 89.72C41.5261 89.6333 41.3628 89.4767 41.2561 89.25C41.1561 89.0167 41.1061 88.68 41.1061 88.24V86.39C41.1061 85.9433 41.2328 85.64 41.4861 85.48C41.7395 85.3133 42.1061 85.23 42.5861 85.23C43.0595 85.23 43.4228 85.3133 43.6761 85.48C43.9295 85.64 44.0561 85.9433 44.0561 86.39V87.64H42.4361V88.85C42.4361 88.9567 42.4495 89.03 42.4761 89.07C42.5028 89.1033 42.5395 89.12 42.5861 89.12C42.6795 89.12 42.7261 89.03 42.7261 88.85V88.05H44.0561V88.24C44.0561 88.68 44.0028 89.0167 43.8961 89.25C43.7961 89.4767 43.6361 89.6333 43.4161 89.72C43.2028 89.8 42.9261 89.84 42.5861 89.84ZM42.4361 87.04H42.7261V86.19C42.7261 86.0233 42.6795 85.94 42.5861 85.94C42.5395 85.94 42.5028 85.9567 42.4761 85.99C42.4495 86.0233 42.4361 86.09 42.4361 86.19V87.04ZM42.5261 86.95V86.18C42.5261 86.08 42.5461 86.03 42.5861 86.03C42.6261 86.03 42.6461 86.08 42.6461 86.18V86.95H42.5261ZM44.3808 90V88.78C44.4942 88.78 44.6008 88.7467 44.7008 88.68C44.8008 88.6067 44.8575 88.4867 44.8708 88.32L45.1508 85.05H48.7408V90H46.8108V88.5H46.8008C46.7875 88.9 46.7408 89.21 46.6608 89.43C46.5875 89.6433 46.4642 89.7933 46.2908 89.88C46.1175 89.96 45.8742 90 45.5608 90H44.3808ZM44.5508 89.82H45.5608C45.8408 89.82 46.0508 89.7867 46.1908 89.72C46.3308 89.6467 46.4308 89.53 46.4908 89.37C46.5508 89.21 46.5942 88.9933 46.6208 88.72L46.8708 86.38H46.9908V89.82H48.5608V85.23H45.3208L45.0508 88.33C45.0375 88.5233 44.9775 88.6733 44.8708 88.78C44.7708 88.8867 44.6642 88.94 44.5508 88.94V89.82ZM44.6408 89.73V89.03C44.7542 89.03 44.8575 88.9767 44.9508 88.87C45.0508 88.7567 45.1108 88.58 45.1308 88.34L45.4008 85.32H48.4708V89.73H47.0808V86.29H46.7908L46.5308 88.7C46.5042 88.98 46.4575 89.1967 46.3908 89.35C46.3308 89.4967 46.2342 89.5967 46.1008 89.65C45.9742 89.7033 45.7942 89.73 45.5608 89.73H44.6408ZM48.913 90V85.05H50.753V86.43H51.173C51.393 86.43 51.593 86.4667 51.773 86.54C51.953 86.6067 52.0963 86.7333 52.203 86.92C52.3163 87.1 52.373 87.36 52.373 87.7V88.3C52.373 88.78 52.3197 89.1433 52.213 89.39C52.113 89.63 51.9563 89.7933 51.743 89.88C51.5363 89.96 51.273 90 50.953 90H48.913ZM49.083 89.82H50.953C51.233 89.82 51.4663 89.78 51.653 89.7C51.8397 89.62 51.9763 89.4733 52.063 89.26C52.1563 89.04 52.203 88.72 52.203 88.3V87.7C52.203 87.4133 52.1563 87.1933 52.063 87.04C51.9697 86.88 51.843 86.77 51.683 86.71C51.5297 86.6433 51.3597 86.61 51.173 86.61H50.583V85.23H49.083V89.82ZM49.163 89.73V85.32H50.493V86.7H51.173C51.4263 86.7 51.6463 86.77 51.833 86.91C52.0197 87.0433 52.113 87.3067 52.113 87.7V88.3C52.113 88.6933 52.0697 88.9933 51.983 89.2C51.903 89.4067 51.7763 89.5467 51.603 89.62C51.4363 89.6933 51.2197 89.73 50.953 89.73H49.163ZM50.643 89.02C50.683 89.02 50.7163 89 50.743 88.96C50.7697 88.9333 50.783 88.8633 50.783 88.75V87.81C50.783 87.7033 50.7697 87.6333 50.743 87.6C50.7097 87.5667 50.6763 87.55 50.643 87.55C50.5963 87.55 50.5597 87.57 50.533 87.61C50.5063 87.6433 50.493 87.71 50.493 87.81V88.75C50.493 88.8633 50.5063 88.9333 50.533 88.96C50.5663 89 50.603 89.02 50.643 89.02ZM50.643 88.93C50.623 88.93 50.6097 88.9167 50.603 88.89C50.5897 88.8633 50.583 88.8167 50.583 88.75V87.81C50.583 87.6967 50.603 87.64 50.643 87.64C50.683 87.64 50.703 87.6967 50.703 87.81V88.75C50.703 88.8167 50.6963 88.8633 50.683 88.89C50.6763 88.9167 50.663 88.93 50.643 88.93ZM52.5558 90V85.05H56.0158V90H52.5558ZM52.7258 89.82H54.2258V88.07H54.3658V89.82H55.8458V85.23H54.3658V86.85H54.2258V85.23H52.7258V89.82ZM52.8158 89.73V85.32H54.1458V86.94H54.4458V85.32H55.7658V89.73H54.4458V87.98H54.1458V89.73H52.8158ZM56.1884 90V85.05H58.0284V86.43H58.4484C58.6684 86.43 58.8684 86.4667 59.0484 86.54C59.2284 86.6067 59.3717 86.7333 59.4784 86.92C59.5917 87.1 59.6484 87.36 59.6484 87.7V88.3C59.6484 88.78 59.5951 89.1433 59.4884 89.39C59.3884 89.63 59.2317 89.7933 59.0184 89.88C58.8117 89.96 58.5484 90 58.2284 90H56.1884ZM56.3584 89.82H58.2284C58.5084 89.82 58.7417 89.78 58.9284 89.7C59.1151 89.62 59.2517 89.4733 59.3384 89.26C59.4317 89.04 59.4784 88.72 59.4784 88.3V87.7C59.4784 87.4133 59.4317 87.1933 59.3384 87.04C59.2451 86.88 59.1184 86.77 58.9584 86.71C58.8051 86.6433 58.6351 86.61 58.4484 86.61H57.8584V85.23H56.3584V89.82ZM56.4384 89.73V85.32H57.7684V86.7H58.4484C58.7017 86.7 58.9217 86.77 59.1084 86.91C59.2951 87.0433 59.3884 87.3067 59.3884 87.7V88.3C59.3884 88.6933 59.3451 88.9933 59.2584 89.2C59.1784 89.4067 59.0517 89.5467 58.8784 89.62C58.7117 89.6933 58.4951 89.73 58.2284 89.73H56.4384ZM57.9184 89.02C57.9584 89.02 57.9917 89 58.0184 88.96C58.0451 88.9333 58.0584 88.8633 58.0584 88.75V87.81C58.0584 87.7033 58.0451 87.6333 58.0184 87.6C57.9851 87.5667 57.9517 87.55 57.9184 87.55C57.8717 87.55 57.8351 87.57 57.8084 87.61C57.7817 87.6433 57.7684 87.71 57.7684 87.81V88.75C57.7684 88.8633 57.7817 88.9333 57.8084 88.96C57.8417 89 57.8784 89.02 57.9184 89.02ZM57.9184 88.93C57.8984 88.93 57.8851 88.9167 57.8784 88.89C57.8651 88.8633 57.8584 88.8167 57.8584 88.75V87.81C57.8584 87.6967 57.8784 87.64 57.9184 87.64C57.9584 87.64 57.9784 87.6967 57.9784 87.81V88.75C57.9784 88.8167 57.9717 88.8633 57.9584 88.89C57.9517 88.9167 57.9384 88.93 57.9184 88.93ZM59.8284 90V85.05H61.3884V90H59.8284ZM59.9684 89.82H61.2484V85.23H59.9684V89.82ZM60.0484 89.73V85.32H61.1684V89.73H60.0484ZM61.5695 90V85.05H63.2395V85.76L63.4195 85.05H64.9995V90H63.3295V89.04L63.0695 90H61.5695ZM61.7395 89.82H62.9495L63.4995 88.05V89.82H64.8295V85.23H63.5395L63.0695 86.71V85.23H61.7395V89.82ZM61.8295 89.73V85.32H62.9895V87.25L63.5995 85.32H64.7495V89.73H63.5895V87.46L62.8795 89.73H61.8295ZM63.2895 84.63C63.0295 84.63 62.7995 84.5767 62.5995 84.47C62.4062 84.3633 62.2628 84.22 62.1695 84.04C62.0762 83.86 62.0528 83.6567 62.0995 83.43H63.0295C63.0362 83.55 63.0495 83.63 63.0695 83.67C63.0962 83.7033 63.1695 83.72 63.2895 83.72C63.4095 83.72 63.4828 83.7 63.5095 83.66C63.5362 83.62 63.5462 83.5433 63.5395 83.43H64.4795C64.5262 83.6567 64.5028 83.86 64.4095 84.04C64.3162 84.22 64.1728 84.3633 63.9795 84.47C63.7862 84.5767 63.5562 84.63 63.2895 84.63ZM63.2895 84.49C63.6162 84.49 63.8795 84.4033 64.0795 84.23C64.2862 84.0567 64.3795 83.8367 64.3595 83.57H63.6795C63.6595 83.7633 63.5295 83.86 63.2895 83.86C63.0495 83.86 62.9195 83.7633 62.8995 83.57H62.2195C62.1995 83.8367 62.2895 84.0567 62.4895 84.23C62.6962 84.4033 62.9628 84.49 63.2895 84.49ZM63.2895 84.42C63.0495 84.42 62.8562 84.38 62.7095 84.3C62.5628 84.2133 62.4562 84.11 62.3895 83.99C62.3228 83.8633 62.2895 83.7467 62.2895 83.64H62.8395C62.8795 83.8333 63.0295 83.93 63.2895 83.93C63.5495 83.93 63.6995 83.8333 63.7395 83.64H64.2895C64.2895 83.7467 64.2562 83.8633 64.1895 83.99C64.1228 84.11 64.0162 84.2133 63.8695 84.3C63.7295 84.38 63.5362 84.42 63.2895 84.42ZM68.3367 90.05C67.77 90.05 67.35 89.9433 67.0767 89.73C66.81 89.51 66.6767 89.17 66.6767 88.71L66.6667 85.52C66.6667 85.2 66.69 84.9033 66.7367 84.63C66.7833 84.35 66.8867 84.1233 67.0467 83.95C67.2133 83.7767 67.47 83.69 67.8167 83.69C68.37 83.69 68.81 83.6567 69.1367 83.59C69.47 83.5233 69.73 83.4133 69.9167 83.26V84.21C69.9167 84.3967 69.86 84.55 69.7467 84.67C69.64 84.79 69.5133 84.8733 69.3667 84.92C69.88 85.0867 70.1367 85.4933 70.1367 86.14V88.31C70.1367 88.7567 70.08 89.1067 69.9667 89.36C69.86 89.6133 69.6767 89.7933 69.4167 89.9C69.1567 90 68.7967 90.05 68.3367 90.05ZM68.3367 89.87C68.7167 89.87 69.0233 89.8367 69.2567 89.77C69.4967 89.6967 69.6733 89.55 69.7867 89.33C69.9 89.1033 69.9567 88.7633 69.9567 88.31V86.14C69.9567 85.4 69.6133 85.03 68.9267 85.03C68.6667 85.03 68.47 85.11 68.3367 85.27C68.3367 85.0767 68.3833 84.95 68.4767 84.89C68.57 84.83 68.73 84.8 68.9567 84.8C69.4767 84.8 69.7367 84.6033 69.7367 84.21V83.56C69.59 83.6667 69.3633 83.7467 69.0567 83.8C68.75 83.8467 68.3367 83.87 67.8167 83.87C67.5233 83.87 67.3067 83.9433 67.1667 84.09C67.0333 84.2367 66.9467 84.4367 66.9067 84.69C66.8667 84.9367 66.8467 85.2133 66.8467 85.52L66.8567 88.71C66.8567 89.1167 66.9733 89.4133 67.2067 89.6C67.4467 89.78 67.8233 89.87 68.3367 89.87ZM68.3367 89.79C68.0633 89.79 67.82 89.7633 67.6067 89.71C67.4 89.65 67.2367 89.5433 67.1167 89.39C66.9967 89.23 66.9367 89.0033 66.9367 88.71L66.9267 85.52C66.9267 85.2067 66.9433 84.9333 66.9767 84.7C67.0167 84.4667 67.1 84.2833 67.2267 84.15C67.3533 84.0167 67.55 83.95 67.8167 83.95C68.07 83.95 68.3267 83.94 68.5867 83.92C68.8533 83.9 69.0833 83.87 69.2767 83.83C69.4767 83.79 69.6033 83.7433 69.6567 83.69V84.21C69.6567 84.3633 69.6067 84.4867 69.5067 84.58C69.4067 84.6733 69.2233 84.72 68.9567 84.72C68.6433 84.72 68.4467 84.7667 68.3667 84.86C68.2933 84.9533 68.2567 85.1067 68.2567 85.32V85.51C68.31 85.4167 68.38 85.3267 68.4667 85.24C68.56 85.1533 68.7133 85.11 68.9267 85.11C69.1867 85.11 69.41 85.1833 69.5967 85.33C69.7833 85.47 69.8767 85.74 69.8767 86.14V88.31C69.8767 88.7433 69.8267 89.0667 69.7267 89.28C69.6267 89.4933 69.4633 89.6333 69.2367 89.7C69.01 89.76 68.71 89.79 68.3367 89.79ZM68.3967 88.99C68.4633 88.99 68.5033 88.9667 68.5167 88.92C68.5367 88.8667 68.5467 88.81 68.5467 88.75V86.23C68.5467 86.13 68.5333 86.0633 68.5067 86.03C68.4867 85.9967 68.45 85.98 68.3967 85.98C68.35 85.98 68.3133 85.9967 68.2867 86.03C68.2667 86.0633 68.2567 86.13 68.2567 86.23V88.75C68.2567 88.91 68.3033 88.99 68.3967 88.99ZM68.3967 88.91C68.3567 88.91 68.3367 88.8567 68.3367 88.75V86.23C68.3367 86.1567 68.34 86.11 68.3467 86.09C68.36 86.07 68.3767 86.06 68.3967 86.06C68.4233 86.06 68.44 86.07 68.4467 86.09C68.46 86.1033 68.4667 86.15 68.4667 86.23V88.75C68.4667 88.8567 68.4433 88.91 68.3967 88.91ZM71.35 90.06C71.19 90.06 71.0233 90.0367 70.85 89.99C70.6833 89.9433 70.5433 89.84 70.43 89.68C70.3166 89.52 70.26 89.27 70.26 88.93V88.21C70.26 87.7033 70.48 87.3433 70.92 87.13H70.35V86.28C70.35 85.8333 70.4633 85.5 70.69 85.28C70.9166 85.0533 71.34 84.94 71.96 84.94C72.3866 84.94 72.7266 84.9767 72.98 85.05C73.2333 85.1167 73.4166 85.2467 73.53 85.44C73.6433 85.6333 73.7 85.9133 73.7 86.28V90H71.86V89.96C71.72 90.0267 71.55 90.06 71.35 90.06ZM71.35 89.88C71.5233 89.88 71.6633 89.8567 71.77 89.81C71.8766 89.7633 71.9633 89.7 72.03 89.62V89.82H73.53V86.28C73.53 85.9533 73.48 85.71 73.38 85.55C73.28 85.3833 73.1133 85.27 72.88 85.21C72.6533 85.15 72.3466 85.12 71.96 85.12C71.4133 85.12 71.0366 85.2167 70.83 85.41C70.6233 85.5967 70.52 85.8867 70.52 86.28V86.95H71.76C71.72 86.9767 71.6633 87.0033 71.59 87.03C71.5233 87.05 71.4466 87.0767 71.36 87.11C71.2333 87.1567 71.0966 87.22 70.95 87.3C70.8033 87.3733 70.68 87.48 70.58 87.62C70.48 87.76 70.43 87.9567 70.43 88.21V88.93C70.43 89.21 70.4766 89.42 70.57 89.56C70.67 89.6933 70.79 89.78 70.93 89.82C71.07 89.86 71.21 89.88 71.35 89.88ZM71.35 89.79C71.2233 89.79 71.0966 89.7733 70.97 89.74C70.8433 89.7 70.7366 89.62 70.65 89.5C70.5633 89.3733 70.52 89.1833 70.52 88.93V88.21C70.52 87.9567 70.5733 87.76 70.68 87.62C70.7933 87.48 70.94 87.37 71.12 87.29C71.3 87.21 71.4866 87.1367 71.68 87.07C71.8533 87.01 71.9633 86.9367 72.01 86.85C72.0633 86.7633 72.09 86.6333 72.09 86.46V86.18C72.09 86.1067 72.08 86.05 72.06 86.01C72.0466 85.9633 72.01 85.94 71.95 85.94C71.89 85.94 71.85 85.97 71.83 86.03C71.81 86.09 71.8 86.1767 71.8 86.29V86.86H70.6V86.28C70.6 85.9267 70.6966 85.66 70.89 85.48C71.0833 85.3 71.44 85.21 71.96 85.21C72.3266 85.21 72.6166 85.24 72.83 85.3C73.05 85.3533 73.2066 85.4567 73.3 85.61C73.4 85.7633 73.45 85.9867 73.45 86.28V89.73H72.12V89.29C72.0866 89.4033 72.01 89.5167 71.89 89.63C71.7766 89.7367 71.5966 89.79 71.35 89.79ZM71.89 86.87V86.29C71.89 86.1167 71.91 86.03 71.95 86.03C71.99 86.03 72.01 86.08 72.01 86.18V86.46C72.01 86.6533 71.97 86.79 71.89 86.87ZM71.95 89.02C72.03 89.02 72.0733 88.98 72.08 88.9C72.0866 88.86 72.09 88.8167 72.09 88.77C72.09 88.7167 72.09 88.6567 72.09 88.59V87.53C72.0033 87.5833 71.9333 87.6533 71.88 87.74C71.8266 87.82 71.8 87.93 71.8 88.07V88.65C71.8 88.75 71.8066 88.8367 71.82 88.91C71.8333 88.9833 71.8766 89.02 71.95 89.02ZM71.95 88.93C71.9166 88.93 71.9 88.9 71.9 88.84L71.89 88.65V88.07C71.89 87.9167 71.93 87.7967 72.01 87.71V88.83C72.01 88.8967 71.99 88.93 71.95 88.93ZM75.5744 90.11C75.1744 90.11 74.8477 90.0633 74.5944 89.97C74.3411 89.87 74.1511 89.6867 74.0244 89.42C73.9044 89.1533 73.8444 88.76 73.8444 88.24V86.39C73.8444 85.85 73.9944 85.4767 74.2944 85.27C74.5944 85.0633 75.0211 84.96 75.5744 84.96C76.1277 84.96 76.5544 85.0633 76.8544 85.27C77.1544 85.4767 77.3044 85.85 77.3044 86.39V87.37H75.6844V87.55H77.3044V88.24C77.3044 88.76 77.2411 89.1533 77.1144 89.42C76.9877 89.6867 76.7977 89.87 76.5444 89.97C76.2911 90.0633 75.9677 90.11 75.5744 90.11ZM75.5744 89.93C75.9344 89.93 76.2277 89.8867 76.4544 89.8C76.6877 89.7133 76.8577 89.55 76.9644 89.31C77.0777 89.0633 77.1344 88.7067 77.1344 88.24V87.73H75.6344V88.89C75.6344 88.9833 75.6144 89.03 75.5744 89.03C75.5344 89.03 75.5144 88.9833 75.5144 88.89V86.21C75.5144 86.09 75.5344 86.03 75.5744 86.03C75.6144 86.03 75.6344 86.09 75.6344 86.21V87.19H77.1344V86.39C77.1344 85.91 76.9977 85.5833 76.7244 85.41C76.4577 85.23 76.0744 85.14 75.5744 85.14C75.0744 85.14 74.6877 85.23 74.4144 85.41C74.1477 85.5833 74.0144 85.91 74.0144 86.39V88.24C74.0144 88.7067 74.0677 89.0633 74.1744 89.31C74.2877 89.55 74.4611 89.7133 74.6944 89.8C74.9277 89.8867 75.2211 89.93 75.5744 89.93ZM75.5744 89.84C75.2344 89.84 74.9544 89.8 74.7344 89.72C74.5144 89.6333 74.3511 89.4767 74.2444 89.25C74.1444 89.0167 74.0944 88.68 74.0944 88.24V86.39C74.0944 85.9433 74.2211 85.64 74.4744 85.48C74.7277 85.3133 75.0944 85.23 75.5744 85.23C76.0477 85.23 76.4111 85.3133 76.6644 85.48C76.9177 85.64 77.0444 85.9433 77.0444 86.39V87.1H75.7144V86.21C75.7144 86.03 75.6677 85.94 75.5744 85.94C75.4744 85.94 75.4244 86.03 75.4244 86.21V88.85C75.4244 89.03 75.4744 89.12 75.5744 89.12C75.6677 89.12 75.7144 89.03 75.7144 88.85V87.82H77.0444V88.24C77.0444 88.68 76.9911 89.0167 76.8844 89.25C76.7844 89.4767 76.6244 89.6333 76.4044 89.72C76.1911 89.8 75.9144 89.84 75.5744 89.84ZM79.1291 90.11C78.7291 90.11 78.4024 90.0633 78.1491 89.97C77.8958 89.87 77.7058 89.6867 77.5791 89.42C77.4591 89.1533 77.3991 88.76 77.3991 88.24V86.39C77.3991 85.85 77.5491 85.4767 77.8491 85.27C78.1491 85.0633 78.5758 84.96 79.1291 84.96C79.6824 84.96 80.1091 85.0633 80.4091 85.27C80.7091 85.4767 80.8591 85.85 80.8591 86.39V87.37H79.2391V87.55H80.8591V88.24C80.8591 88.76 80.7958 89.1533 80.6691 89.42C80.5424 89.6867 80.3524 89.87 80.0991 89.97C79.8458 90.0633 79.5224 90.11 79.1291 90.11ZM79.1291 89.93C79.4891 89.93 79.7824 89.8867 80.0091 89.8C80.2424 89.7133 80.4124 89.55 80.5191 89.31C80.6324 89.0633 80.6891 88.7067 80.6891 88.24V87.73H79.1891V88.89C79.1891 88.9833 79.1691 89.03 79.1291 89.03C79.0891 89.03 79.0691 88.9833 79.0691 88.89V86.21C79.0691 86.09 79.0891 86.03 79.1291 86.03C79.1691 86.03 79.1891 86.09 79.1891 86.21V87.19H80.6891V86.39C80.6891 85.91 80.5524 85.5833 80.2791 85.41C80.0124 85.23 79.6291 85.14 79.1291 85.14C78.6291 85.14 78.2424 85.23 77.9691 85.41C77.7024 85.5833 77.5691 85.91 77.5691 86.39V88.24C77.5691 88.7067 77.6224 89.0633 77.7291 89.31C77.8424 89.55 78.0158 89.7133 78.2491 89.8C78.4824 89.8867 78.7758 89.93 79.1291 89.93ZM79.1291 89.84C78.7891 89.84 78.5091 89.8 78.2891 89.72C78.0691 89.6333 77.9058 89.4767 77.7991 89.25C77.6991 89.0167 77.6491 88.68 77.6491 88.24V86.39C77.6491 85.9433 77.7758 85.64 78.0291 85.48C78.2824 85.3133 78.6491 85.23 79.1291 85.23C79.6024 85.23 79.9658 85.3133 80.2191 85.48C80.4724 85.64 80.5991 85.9433 80.5991 86.39V87.1H79.2691V86.21C79.2691 86.03 79.2224 85.94 79.1291 85.94C79.0291 85.94 78.9791 86.03 78.9791 86.21V88.85C78.9791 89.03 79.0291 89.12 79.1291 89.12C79.2224 89.12 79.2691 89.03 79.2691 88.85V87.82H80.5991V88.24C80.5991 88.68 80.5458 89.0167 80.4391 89.25C80.3391 89.4767 80.1791 89.6333 79.9591 89.72C79.7458 89.8 79.4691 89.84 79.1291 89.84ZM82.6838 90.11C82.2838 90.11 81.9571 90.0633 81.7038 89.97C81.4505 89.87 81.2605 89.6867 81.1338 89.42C81.0138 89.1533 80.9538 88.76 80.9538 88.24V86.39C80.9538 85.85 81.1038 85.4767 81.4038 85.27C81.7038 85.0633 82.1305 84.96 82.6838 84.96C83.2371 84.96 83.6638 85.0633 83.9638 85.27C84.2638 85.4767 84.4138 85.85 84.4138 86.39V88.24C84.4138 88.76 84.3505 89.1533 84.2238 89.42C84.0971 89.6867 83.9071 89.87 83.6538 89.97C83.4005 90.0633 83.0771 90.11 82.6838 90.11ZM82.6838 89.93C83.0438 89.93 83.3371 89.8867 83.5638 89.8C83.7971 89.7133 83.9671 89.55 84.0738 89.31C84.1871 89.0633 84.2438 88.7067 84.2438 88.24V87.96H82.7438V88.85C82.7438 88.9233 82.7371 88.9733 82.7238 89C82.7171 89.02 82.7038 89.03 82.6838 89.03C82.6438 89.03 82.6238 88.97 82.6238 88.85V87.73H84.2438V86.39C84.2438 85.91 84.1071 85.5833 83.8338 85.41C83.5671 85.23 83.1838 85.14 82.6838 85.14C82.1838 85.14 81.7971 85.23 81.5238 85.41C81.2571 85.5833 81.1238 85.91 81.1238 86.39V88.24C81.1238 88.7067 81.1771 89.0633 81.2838 89.31C81.3971 89.55 81.5705 89.7133 81.8038 89.8C82.0371 89.8867 82.3305 89.93 82.6838 89.93ZM82.6838 89.84C82.3438 89.84 82.0638 89.8 81.8438 89.72C81.6238 89.6333 81.4605 89.4767 81.3538 89.25C81.2538 89.0167 81.2038 88.68 81.2038 88.24V86.39C81.2038 85.9433 81.3305 85.64 81.5838 85.48C81.8371 85.3133 82.2038 85.23 82.6838 85.23C83.1571 85.23 83.5205 85.3133 83.7738 85.48C84.0271 85.64 84.1538 85.9433 84.1538 86.39V87.64H82.5338V88.85C82.5338 88.9567 82.5471 89.03 82.5738 89.07C82.6005 89.1033 82.6371 89.12 82.6838 89.12C82.7771 89.12 82.8238 89.03 82.8238 88.85V88.05H84.1538V88.24C84.1538 88.68 84.1005 89.0167 83.9938 89.25C83.8938 89.4767 83.7338 89.6333 83.5138 89.72C83.3005 89.8 83.0238 89.84 82.6838 89.84ZM82.5338 87.04H82.8238V86.19C82.8238 86.0233 82.7771 85.94 82.6838 85.94C82.6371 85.94 82.6005 85.9567 82.5738 85.99C82.5471 86.0233 82.5338 86.09 82.5338 86.19V87.04ZM82.6238 86.95V86.18C82.6238 86.08 82.6438 86.03 82.6838 86.03C82.7238 86.03 82.7438 86.08 82.7438 86.18V86.95H82.6238ZM84.5285 90V85.05H86.1985V85.76L86.3785 85.05H87.9585V90H86.2885V89.04L86.0285 90H84.5285ZM84.6985 89.82H85.9085L86.4585 88.05V89.82H87.7885V85.23H86.4985L86.0285 86.71V85.23H84.6985V89.82ZM84.7885 89.73V85.32H85.9485V87.25L86.5585 85.32H87.7085V89.73H86.5485V87.46L85.8385 89.73H84.7885ZM86.2485 84.63C85.9885 84.63 85.7585 84.5767 85.5585 84.47C85.3651 84.3633 85.2218 84.22 85.1285 84.04C85.0351 83.86 85.0118 83.6567 85.0585 83.43H85.9885C85.9951 83.55 86.0085 83.63 86.0285 83.67C86.0551 83.7033 86.1285 83.72 86.2485 83.72C86.3685 83.72 86.4418 83.7 86.4685 83.66C86.4951 83.62 86.5051 83.5433 86.4985 83.43H87.4385C87.4851 83.6567 87.4618 83.86 87.3685 84.04C87.2751 84.22 87.1318 84.3633 86.9385 84.47C86.7451 84.5767 86.5151 84.63 86.2485 84.63ZM86.2485 84.49C86.5751 84.49 86.8385 84.4033 87.0385 84.23C87.2451 84.0567 87.3385 83.8367 87.3185 83.57H86.6385C86.6185 83.7633 86.4885 83.86 86.2485 83.86C86.0085 83.86 85.8785 83.7633 85.8585 83.57H85.1785C85.1585 83.8367 85.2485 84.0567 85.4485 84.23C85.6551 84.4033 85.9218 84.49 86.2485 84.49ZM86.2485 84.42C86.0085 84.42 85.8151 84.38 85.6685 84.3C85.5218 84.2133 85.4151 84.11 85.3485 83.99C85.2818 83.8633 85.2485 83.7467 85.2485 83.64H85.7985C85.8385 83.8333 85.9885 83.93 86.2485 83.93C86.5085 83.93 86.6585 83.8333 86.6985 83.64H87.2485C87.2485 83.7467 87.2151 83.8633 87.1485 83.99C87.0818 84.11 86.9751 84.2133 86.8285 84.3C86.6885 84.38 86.4951 84.42 86.2485 84.42ZM88.1418 90V85.05H91.6018V90H88.1418ZM88.3118 89.82H89.8118V88.07H89.9518V89.82H91.4318V85.23H89.9518V86.85H89.8118V85.23H88.3118V89.82ZM88.4018 89.73V85.32H89.7318V86.94H90.0318V85.32H91.3518V89.73H90.0318V87.98H89.7318V89.73H88.4018Z" fill="white"/>
<path d="M33.1932 6.66667L9.09091 11.0667L4.5 16.9333L50.4091 14V16.9333H52.7045V36H57.2955V16.9333H59.5909V14L105.5 16.9333L100.909 11.0667L76.8068 6.66667L59.5 5.93333V3H50.5V5.93333L33.1932 6.66667Z" stroke="black"/>
<path d="M50.5 2V5L42 5.5L33 6L21 8L9.5 10L3.5 17.0889L50.5 14.3333V16.5H52.75V35H57.25V16.5H59.5V14.3333L107 17.0889L100.5 10L88.5 8L77 6L67.5 5.5L59.5 5V2H54.5H50.5Z" stroke="#A5A3A3"/>
<path d="M34.0568 5L8.5 9.8L2 18L50.5909 15V16.2H52.7955V34H57.2045V16.2H59.4091V15L107.5 17.5L104 13L101.5 9.8L75.9432 5L59.4091 4.2V1H50.5909V4.2L34.0568 5Z" stroke="#FAFF00"/>
<path d="M52.5 60V76.6667V79.1667L53.75 80H55H56.25L56.875 79.5833L57.5 79.1667V76.6667V60" stroke="black"/>
<path d="M52.5 59V75.6667V78.1667L53.75 79H55H56.25L56.875 78.5833L57.5 78.1667V75.6667V59" stroke="#D7D7D7"/>
<path d="M52.5 59V74.8333V77.2083L53.75 78H55H56.25L56.875 77.6042L57.5 77.2083V74.8333V59" stroke="#FAFF00"/>
<path d="M21.6665 56V38.27H30.2465V42.92H27.2465V56H21.6665ZM22.1465 55.46H26.7665V42.38H29.7365V38.81H22.1465V55.46ZM22.3865 55.19V39.08H29.4965V42.11H26.5265V55.19H22.3865ZM36.0313 56.33C34.8113 56.33 33.7913 56.17 32.9713 55.85C32.1713 55.51 31.5713 54.92 31.1713 54.08C30.7713 53.22 30.5713 52.01 30.5713 50.45V42.44C30.5713 40.82 31.0713 39.67 32.0713 38.99C33.0713 38.29 34.3913 37.94 36.0313 37.94C37.6713 37.94 38.9513 38.28 39.8713 38.96C40.8113 39.64 41.2813 40.8 41.2813 42.44V50.42C41.2813 52 41.0913 53.22 40.7113 54.08C40.3513 54.92 39.7813 55.51 39.0013 55.85C38.2413 56.17 37.2513 56.33 36.0313 56.33ZM36.0313 55.82C37.1313 55.82 38.0213 55.67 38.7013 55.37C39.4013 55.07 39.9213 54.53 40.2613 53.75C40.6013 52.95 40.7713 51.84 40.7713 50.42V42.44C40.7713 40.98 40.3513 39.95 39.5113 39.35C38.6713 38.75 37.5113 38.45 36.0313 38.45C34.5513 38.45 33.3513 38.75 32.4313 39.35C31.5313 39.95 31.0813 40.98 31.0813 42.44V50.45C31.0813 51.87 31.2613 52.97 31.6213 53.75C32.0013 54.53 32.5513 55.07 33.2713 55.37C34.0113 55.67 34.9313 55.82 36.0313 55.82ZM36.0313 55.55C34.9713 55.55 34.0913 55.41 33.3913 55.13C32.7113 54.85 32.2013 54.34 31.8613 53.6C31.5213 52.86 31.3513 51.81 31.3513 50.45V42.44C31.3513 41.08 31.7713 40.12 32.6113 39.56C33.4713 39 34.6113 38.72 36.0313 38.72C37.4313 38.72 38.5213 39 39.3013 39.56C40.1013 40.1 40.5013 41.06 40.5013 42.44V50.42C40.5013 51.78 40.3413 52.83 40.0213 53.57C39.7213 54.31 39.2413 54.83 38.5813 55.13C37.9413 55.41 37.0913 55.55 36.0313 55.55ZM36.0313 53C36.1713 53 36.2713 52.96 36.3313 52.88C36.3913 52.78 36.4213 52.57 36.4213 52.25V42.17C36.4213 41.89 36.3913 41.7 36.3313 41.6C36.2913 41.48 36.1913 41.42 36.0313 41.42C35.8913 41.42 35.7813 41.48 35.7013 41.6C35.6413 41.7 35.6113 41.89 35.6113 42.17V52.25C35.6113 52.75 35.7513 53 36.0313 53ZM36.0313 52.76C35.9113 52.76 35.8513 52.62 35.8513 52.34V42.05C35.8513 41.81 35.9113 41.69 36.0313 41.69C36.1313 41.69 36.1813 41.81 36.1813 42.05V52.34C36.1813 52.62 36.1313 52.76 36.0313 52.76ZM41.7641 56V38.27H48.5141C49.9141 38.27 50.9241 38.6 51.5441 39.26C52.1641 39.92 52.4741 40.78 52.4741 41.84V44.51C52.4741 45.47 52.3641 46.36 52.1441 47.18C51.9241 48 51.5341 48.66 50.9741 49.16C50.4341 49.66 49.6841 49.91 48.7241 49.91H47.5841V56H41.7641ZM42.3041 55.46H47.0741V49.34H48.7241C49.5641 49.34 50.2141 49.12 50.6741 48.68C51.1541 48.24 51.4841 47.66 51.6641 46.94C51.8641 46.2 51.9641 45.39 51.9641 44.51V41.84C51.9641 40.94 51.6941 40.21 51.1541 39.65C50.6141 39.09 49.7341 38.81 48.5141 38.81H42.3041V55.46ZM42.5441 55.19V39.08H48.5141C49.6541 39.08 50.4741 39.34 50.9741 39.86C51.4741 40.36 51.7241 41.02 51.7241 41.84V44.51C51.7241 45.33 51.6341 46.09 51.4541 46.79C51.2741 47.47 50.9641 48.02 50.5241 48.44C50.1041 48.86 49.5041 49.07 48.7241 49.07H46.8041V55.19H42.5441ZM46.8041 46.73H47.0741C47.2941 46.73 47.4441 46.59 47.5241 46.31C47.6041 46.01 47.6441 45.46 47.6441 44.66V42.95C47.6441 42.25 47.6041 41.81 47.5241 41.63C47.4441 41.45 47.2941 41.36 47.0741 41.36H46.8041V46.73ZM47.0441 46.46V41.66H47.1641C47.2641 41.66 47.3241 41.76 47.3441 41.96C47.3841 42.14 47.4041 42.58 47.4041 43.28V44.66C47.4041 45.42 47.3741 45.91 47.3141 46.13C47.2541 46.35 47.2041 46.46 47.1641 46.46H47.0441ZM52.9263 56V38.27H63.5463V56H52.9263ZM53.4363 55.46H58.0563V48.77H58.4463V55.46H63.0363V38.81H58.4463V45.05H58.0563V38.81H53.4363V55.46ZM53.7063 55.19V39.08H57.7863V45.32H58.7163V39.08H62.7963V55.19H58.7163V48.5H57.7863V55.19H53.7063ZM63.8784 56L65.4984 49.28C65.5784 48.98 65.6984 48.68 65.8584 48.38C66.0184 48.06 66.1784 47.81 66.3384 47.63C65.8784 47.25 65.5484 46.79 65.3484 46.25C65.1484 45.71 65.0484 45.06 65.0484 44.3V41.84C65.0484 40.8 65.3684 39.95 66.0084 39.29C66.6484 38.61 67.6784 38.27 69.0984 38.27H75.9084V56H63.8784ZM64.5384 55.46H69.6984L70.5684 50.54V55.46H75.3984V38.81H69.0984C67.8584 38.81 66.9584 39.09 66.3984 39.65C65.8584 40.21 65.5884 40.94 65.5884 41.84V44.3C65.5884 44.98 65.6884 45.62 65.8884 46.22C66.1084 46.8 66.5284 47.25 67.1484 47.57C66.9484 47.71 66.7384 47.93 66.5184 48.23C66.3184 48.51 66.1484 48.92 66.0084 49.46L64.5384 55.46ZM64.8684 55.19L66.2484 49.58C66.4284 48.82 66.6684 48.31 66.9684 48.05C67.2684 47.79 67.6184 47.64 68.0184 47.6C67.1584 47.36 66.5784 46.95 66.2784 46.37C65.9784 45.79 65.8284 45.1 65.8284 44.3V41.84C65.8284 41.02 66.0884 40.36 66.6084 39.86C67.1284 39.34 67.9584 39.08 69.0984 39.08H75.1284V55.19H70.8084V48.05L69.4884 55.19H64.8684ZM70.5084 46.46H70.8084V41.36H70.4184C70.1984 41.36 70.0684 41.56 70.0284 41.96C70.0084 42.16 69.9884 42.44 69.9684 42.8C69.9684 43.14 69.9684 43.56 69.9684 44.06C69.9684 45.02 70.0184 45.67 70.1184 46.01C70.2184 46.31 70.3484 46.46 70.5084 46.46ZM70.5084 46.19C70.4084 46.19 70.3384 46.05 70.2984 45.77C70.2384 45.49 70.2084 44.92 70.2084 44.06C70.2084 43.6 70.2084 43.22 70.2084 42.92C70.2084 42.6 70.2184 42.35 70.2384 42.17C70.2784 41.83 70.3384 41.66 70.4184 41.66H70.5684V46.19H70.5084ZM76.4516 56V38.27H88.5116L85.6316 46.82L88.5416 56H82.2416L82.1516 55.49V56H76.4516ZM76.9616 55.46H81.6116V50.54L82.6616 55.46H87.8216C87.6016 54.76 87.3716 54.05 87.1316 53.33C86.8916 52.61 86.6616 51.88 86.4416 51.14L85.0916 46.82L87.7916 38.81H82.4516L81.6116 42.92V38.81H76.9616V55.46ZM77.2316 55.19V39.08H81.3716V45.65L82.6616 39.08H87.4316L84.8216 46.82L87.4916 55.19H82.8716L81.3716 47.93V55.19H77.2316Z" fill="white"/>
</svg>
